#!OML:ASF H:\Punching\Project 1\Capture day 1\Session 1\female.ASF
:FULLY-SPECIFIED
:DEGREES
1632
root 2.43488 14.7382 -0.634977 14.2544 -1.22353 -2.24478
lowerback 0.650755 -0.129027 -1.04472
upperback -7.43418 -0.275165 -0.649484
thorax -8.14133 -0.0922071 -0.0767135
lowerneck -11.4595 -1.13968 10.0797
upperneck 29.031 -7.10721 9.88071
head 11.6388 -0.921027 1.01569
rclavicle -5.7896e-015 1.59028e-015
rhumerus 15.6138 11.2283 -76.092
rradius 120.095
rwrist -37.0495
rhand -9.90151 -24.5156
rfingers 7.12502
rthumb 16.0785 -53.8685
lclavicle -5.7896e-015 1.59028e-015
lhumerus 18.93 -42.3438 84.9729
lradius 136.143
lwrist 18.9651
lhand -21.0926 11.9274
lfingers 7.12502
lthumb 5.28498 41.8415
rfemur 12.7732 -12.3218 7.29093
rtibia -3.18055e-015
rfoot -15.1978 -21.4996
rtoes -8.28483
lfemur -47.2844 1.03021 -5.83269
ltibia 44.1143
lfoot -6.87699 12.1023
ltoes -3.12198
1633
root 2.42631 14.7314 -0.639138 14.3129 0.155178 -1.88935
lowerback 0.427117 0.273021 -0.929997
upperback -7.47827 0.269607 -0.795944
thorax -8.06023 0.165147 -0.335861
lowerneck -11.2852 -1.93563 9.17065
upperneck 28.447 -7.94037 10.0407
head 11.397 -1.41757 1.10734
rclavicle 2.88238e-015 -1.59028e-015
rhumerus 17.3882 10.1305 -75.0493
rradius 117.457
rwrist -37.4792
rhand -11.2306 -25.0432
rfingers 7.12502
rthumb 14.7984 -54.4948
lclavicle 2.88238e-015 -1.59028e-015
lhumerus 18.8833 -42.9781 85.236
lradius 136.019
lwrist 19.2238
lhand -21.0215 11.9157
lfingers 7.12502
lthumb 5.35358 41.8281
rfemur 13.2745 -13.7309 7.04863
rtibia 6.36111e-015
rfoot -15.3801 -21.1928
rtoes -7.51606
lfemur -47.8141 0.75337 -6.41433
ltibia 43.8231
lfoot -6.41855 11.0593
ltoes -3.50769
1634
root 2.41758 14.7223 -0.642839 14.3507 1.5421 -1.55969
lowerback 0.217142 0.70442 -0.78154
upperback -7.51567 0.855391 -0.940293
thorax -7.97432 0.441171 -0.611393
lowerneck -11.0467 -2.7504 8.27758
upperneck 27.8723 -8.7885 10.1598
head 11.1581 -1.9253 1.18431
rclavicle 3.24889e-015 7.95139e-016
rhumerus 19.2712 8.87939 -73.9667
rradius 114.359
rwrist -38.0661
rhand -12.6718 -25.6659
rfingers 7.12502
rthumb 13.4096 -55.2143
lclavicle 3.24889e-015 7.95139e-016
lhumerus 18.9317 -43.6162 85.3414
lradius 135.873
lwrist 19.5622
lhand -20.9771 11.9266
lfingers 7.12502
lthumb 5.3965 41.8379
rfemur 13.8153 -15.132 6.81554
rtibia -6.36111e-015
rfoot -15.5592 -20.8918
rtoes -6.68472
lfemur -48.3209 0.479431 -6.98424
ltibia 43.5741
lfoot -5.98894 10.0063
ltoes -3.93955
1635
root 2.40924 14.7108 -0.64619 14.3639 2.91542 -1.25835
lowerback 0.0231864 1.12262 -0.648182
upperback -7.52651 1.42651 -1.01973
thorax -7.86518 0.714028 -0.805667
lowerneck -10.8224 -3.53349 7.36784
upperneck 27.3631 -9.58247 10.1934
head 10.9546 -2.4145 1.2439
rclavicle -2.34193e-015 -3.97569e-016
rhumerus 21.3756 7.59989 -72.8418
rradius 110.667
rwrist -38.6659
rhand -13.9681 -26.3377
rfingers 7.12502
rthumb 12.1599 -55.9643
lclavicle -2.34193e-015 -3.97569e-016
lhumerus 19.0941 -44.1208 85.2979
lradius 135.688
lwrist 19.8805
lhand -20.9753 11.9745
lfingers 7.12502
lthumb 5.39818 41.8858
rfemur 14.3896 -16.5032 6.5897
rtibia 9.54166e-015
rfoot -15.7355 -20.6027
rtoes -5.82015
lfemur -48.7986 0.192341 -7.52986
ltibia 43.3785
lfoot -5.60367 8.97912
ltoes -4.36666
1636
root 2.40185 14.6974 -0.649175 14.3415 4.26192 -0.992562
lowerback -0.146619 1.52755 -0.50775
upperback -7.51744 1.98268 -1.04497
thorax -7.74633 0.981608 -0.942842
lowerneck -10.5893 -4.28316 6.44811
upperneck 26.9264 -10.3258 10.1595
head 10.7833 -2.88381 1.29102
rclavicle 1.93815e-015 6.36111e-015
rhumerus 23.6703 6.30361 -71.7209
rradius 106.306
rwrist -39.1525
rhand -14.9575 -27.0124
rfingers 7.12502
rthumb 11.2058 -56.6931
lclavicle 1.93815e-015 6.36111e-015
lhumerus 19.3303 -44.5288 85.141
lradius 135.467
lwrist 20.1295
lhand -20.9877 12.0579
lfingers 7.12502
lthumb 5.3862 41.9694
rfemur 15.0028 -17.8286 6.37367
rtibia 3.18055e-015
rfoot -15.9218 -20.3364
rtoes -4.92496
lfemur -49.2352 -0.129288 -8.0311
ltibia 43.2428
lfoot -5.27016 8.01068
ltoes -4.75684
1637
root 2.3957 14.6824 -0.65212 14.2798 5.56807 -0.768188
lowerback -0.293173 1.92984 -0.328435
upperback -7.49771 2.53743 -1.04395
thorax -7.62608 1.24737 -1.07142
lowerneck -10.3102 -5.00492 5.54433
upperneck 26.5501 -11.0343 10.086
head 10.6322 -3.33665 1.33001
rclavicle 6.6655e-015 -2.66371e-014
rhumerus 26.0974 4.97714 -70.6529
rradius 101.245
rwrist -39.3943
rhand -15.5674 -27.7094
rfingers 7.12502
rthumb 10.6175 -57.4212
lclavicle 6.6655e-015 -2.66371e-014
lhumerus 19.6155 -44.8741 84.8896
lradius 135.199
lwrist 20.2722
lhand -20.9882 12.1341
lfingers 7.12502
lthumb 5.38578 42.0457
rfemur 15.6505 -19.0941 6.172
rtibia -1.27222e-014
rfoot -16.1301 -20.0985
rtoes -4.00753
lfemur -49.6269 -0.507363 -8.46511
ltibia 43.1701
lfoot -4.99204 7.13766
ltoes -5.05542
1638
root 2.39073 14.6665 -0.655481 14.179 6.82592 -0.590925
lowerback -0.410091 2.32274 -0.104621
upperback -7.46714 3.08148 -1.01808
thorax -7.50746 1.50627 -1.19603
lowerneck -10.0098 -5.6894 4.66217
upperneck 26.2472 -11.7054 9.98574
head 10.5101 -3.76796 1.36383
rclavicle -3.38307e-014 -1.13307e-014
rhumerus 28.6423 3.65256 -69.6643
rradius 95.4738
rwrist -39.2989
rhand -15.7919 -28.3805
rfingers 7.12502
rthumb 10.4009 -58.1033
lclavicle -3.38307e-014 -1.13307e-014
lhumerus 19.9271 -45.1553 84.5683
lradius 134.885
lwrist 20.2813
lhand -20.9529 12.1633
lfingers 7.12502
lthumb 5.41986 42.074
rfemur 16.3245 -20.2928 5.99277
rtibia 2.8625e-014
rfoot -16.3613 -19.8936
rtoes -3.09153
lfemur -49.9776 -0.945643 -8.81676
ltibia 43.1609
lfoot -4.76534 6.37196
ltoes -5.25312
1639
root 2.38687 14.6497 -0.65935 14.0304 8.02513 -0.477701
lowerback -0.48198 2.73316 0.223391
upperback -7.4579 3.65036 -1.01717
thorax -7.42623 1.76995 -1.40639
lowerneck -9.59503 -6.35832 3.84479
upperneck 25.9927 -12.3773 9.90295
head 10.3909 -4.19143 1.39937
rclavicle 4.9575e-014 2.3059e-014
rhumerus 31.1653 2.28377 -68.7926
rradius 89.0594
rwrist -38.8124
rhand -15.7249 -29.0413
rfingers 7.12502
rthumb 10.4655 -58.7608
lclavicle 4.9575e-014 2.3059e-014
lhumerus 20.1826 -45.4608 84.2353
lradius 134.509
lwrist 20.1341
lhand -20.8406 12.0378
lfingers 7.12502
lthumb 5.52828 41.9457
rfemur 17.0242 -21.4113 5.85241
rtibia 0
rfoot -16.6172 -19.7204
rtoes -2.19914
lfemur -50.2824 -1.43245 -9.06596
ltibia 43.2155
lfoot -4.58698 5.7163
ltoes -5.37112
1640
root 2.38362 14.6323 -0.664244 13.8336 9.15504 -0.438728
lowerback -0.510509 3.13352 0.625753
upperback -7.44273 4.20806 -1.00651
thorax -7.35355 2.02389 -1.64696
lowerneck -9.18663 -6.9808 3.09264
upperneck 25.8263 -13.0177 9.81264
head 10.3083 -4.5881 1.42731
rclavicle 6.74315e-014 2.98177e-016
rhumerus 33.7352 0.954671 -68.0305
rradius 82.0495
rwrist -37.9143
rhand -15.5346 -29.6178
rfingers 7.12502
rthumb 10.6491 -59.328
lclavicle 6.74315e-014 2.98177e-016
lhumerus 20.4343 -45.7402 83.8543
lradius 134.106
lwrist 19.8491
lhand -20.6974 11.8213
lfingers 7.12502
lthumb 5.66653 41.7255
rfemur 17.7372 -22.4402 5.76425
rtibia -4.45278e-014
rfoot -16.8828 -19.5731
rtoes -1.38092
lfemur -50.5473 -1.93836 -9.20756
ltibia 43.3303
lfoot -4.44877 5.15531
ltoes -5.42556
1641
root 2.38083 14.6147 -0.670069 13.5876 10.1974 -0.47559
lowerback -0.490629 3.52121 1.09592
upperback -7.43168 4.75126 -0.989243
thorax -7.30219 2.26646 -1.91861
lowerneck -8.77179 -7.55118 2.42355
upperneck 25.7456 -13.6191 9.71765
head 10.2557 -4.95363 1.4466
rclavicle -2.63304e-014 1.963e-015
rhumerus 36.3031 -0.31537 -67.3886
rradius 74.5365
rwrist -36.6153
rhand -15.3974 -30.0679
rfingers 7.12502
rthumb 10.7815 -59.7712
lclavicle -2.63304e-014 1.963e-015
lhumerus 20.6499 -45.996 83.4564
lradius 133.683
lwrist 19.4368
lhand -20.5158 11.4953
lfingers 7.12502
lthumb 5.84185 41.3948
rfemur 18.4525 -23.3638 5.72827
rtibia 0
rfoot -17.1443 -19.446
rtoes -0.665786
lfemur -50.7674 -2.43398 -9.2486
ltibia 43.4979
lfoot -4.34738 4.67917
ltoes -5.46775
1642
root 2.37857 14.5972 -0.676393 13.2962 11.1306 -0.580483
lowerback -0.432926 3.89173 1.6131
upperback -7.41031 5.27356 -0.964278
thorax -7.25139 2.49608 -2.20747
lowerneck -8.41171 -8.06238 1.847
upperneck 25.7582 -14.1766 9.6168
head 10.2449 -5.28248 1.45262
rclavicle -4.56141e-014 -3.08116e-015
rhumerus 38.8556 -1.52285 -66.8672
rradius 66.6778
rwrist -34.9307
rhand -15.4878 -30.3513
rfingers 7.12502
rthumb 10.6942 -60.0591
lclavicle -4.56141e-014 -3.08116e-015
lhumerus 20.8883 -46.2481 83.0059
lradius 133.292
lwrist 18.9518
lhand -20.371 11.2106
lfingers 7.12502
lthumb 5.98163 41.1062
rfemur 19.1566 -24.1656 5.73391
rtibia 1.27222e-014
rfoot -17.3876 -19.3273
rtoes -0.0644711
lfemur -50.9339 -2.88829 -9.20779
ltibia 43.7041
lfoot -4.28114 4.27472
ltoes -5.51323
